<svg class="main-svg" xmlns="http://www.w3.org/2000/svg" xmlns:xlink="http://www.w3.org/1999/xlink" width="700" height="450" style="" viewBox="0 0 700 450"><rect x="0" y="0" width="700" height="450" style="fill: rgb(255, 255, 255); fill-opacity: 1;"/><defs id="defs-c6d4e2"><g class="clips"><clipPath class="plotclip" id="clipc6d4e2xyplot"><rect width="580" height="330"/></clipPath><clipPath class="axesclip" id="clipc6d4e2x"><rect x="60" y="0" width="580" height="450"/></clipPath><clipPath class="axesclip" id="clipc6d4e2y"><rect x="0" y="60" width="700" height="330"/></clipPath><clipPath class="axesclip" id="clipc6d4e2xy"><rect x="60" y="60" width="580" height="330"/></clipPath></g><g class="gradients"/></defs><g class="bglayer"><rect class="bg" x="60" y="60" width="580" height="330" style="fill: rgb(255, 255, 255); fill-opacity: 1; stroke-width: 0;"/></g><g class="layer-below"><g class="imagelayer"/><g class="shapelayer"/></g><g class="cartesianlayer"><g class="subplot xy"><g class="layer-subplot"><g class="shapelayer"/><g class="imagelayer"/></g><g class="gridlayer" transform="translate(60,60)"><path class="xgrid crisp" d="M0,0v330" transform="translate(140.1,0)" style="stroke: rgb(238, 238, 238); stroke-opacity: 1; stroke-width: 1px;"/><path class="xgrid crisp" d="M0,0v330" transform="translate(280.21,0)" style="stroke: rgb(238, 238, 238); stroke-opacity: 1; stroke-width: 1px;"/><path class="xgrid crisp" d="M0,0v330" transform="translate(420.31,0)" style="stroke: rgb(238, 238, 238); stroke-opacity: 1; stroke-width: 1px;"/><path class="xgrid crisp" d="M0,0v330" transform="translate(560.41,0)" style="stroke: rgb(238, 238, 238); stroke-opacity: 1; stroke-width: 1px;"/><path class="ygrid crisp" d="M0,0h580" transform="translate(0,272.07)" style="stroke: rgb(238, 238, 238); stroke-opacity: 1; stroke-width: 1px;"/><path class="ygrid crisp" d="M0,0h580" transform="translate(0,210.85)" style="stroke: rgb(238, 238, 238); stroke-opacity: 1; stroke-width: 1px;"/><path class="ygrid crisp" d="M0,0h580" transform="translate(0,149.62)" style="stroke: rgb(238, 238, 238); stroke-opacity: 1; stroke-width: 1px;"/><path class="ygrid crisp" d="M0,0h580" transform="translate(0,88.4)" style="stroke: rgb(238, 238, 238); stroke-opacity: 1; stroke-width: 1px;"/><path class="ygrid crisp" d="M0,0h580" transform="translate(0,27.17)" style="stroke: rgb(238, 238, 238); stroke-opacity: 1; stroke-width: 1px;"/></g><g class="overgrid"/><g class="zerolinelayer" transform="translate(60,60)"><path class="xzl zl crisp" d="M0,0v330" transform="translate(0,0)" style="stroke: rgb(68, 68, 68); stroke-opacity: 1; stroke-width: 1px;"/></g><g class="overzero"/><path class="xlines-below"/><path class="ylines-below"/><g class="overlines-below"/><g class="xaxislayer-below"/><g class="yaxislayer-below"/><g class="overaxes-below"/><g class="plot" transform="translate(60, 60)" clip-path="url(#clipc6d4e2xyplot)"><g class="imagelayer"/><g class="maplayer"/><g class="barlayer"/><g class="carpetlayer"/><g class="boxlayer"/><g class="scatterlayer"><g class="trace scatter tracec9752d" style="stroke-miterlimit: 2; opacity: 1;"><path class="js-line" style="vector-effect: non-scaling-stroke; fill: none; stroke: rgb(31, 119, 180); stroke-opacity: 1; stroke-width: 2px; opacity: 1;" d="M0,16.5L0.81,218.73L0.85,219.96L2.39,241.35L2.42,241.61L4.77,251.63L4.81,270.8L4.84,271.62L5.05,263.78L5.33,264.56L5.37,264.64L5.65,265.49L6,264.09L6.03,264.18L6.07,264.26L6.98,265.1L7.01,265.11L7.99,265.88L8.03,265.96L9.6,267L9.64,274.92L9.67,278.46L10.2,272.27L10.37,272.64L10.41,272.73L11.22,270.97L11.46,271.26L11.5,271.35L11.95,270.77L12.3,271.15L12.34,271.17L14.44,271.26L14.47,273.94L14.51,274.36L14.86,271.85L15.07,272.49L15.1,272.12L15.31,271.5L15.73,272.44L15.8,272.3L15.84,272.47L16.08,272.21L16.29,272.75L16.5,272.82L16.54,272.78L17.48,273.72L17.52,273.78L18.43,273.52L18.47,273.52L19.31,274.03L19.34,277.29L19.38,273.09L20.11,274.9L20.15,274.92L20.22,274.77L20.64,275.59L20.78,275.29L20.81,275.4L21.79,276.15L21.83,276.21L23.02,276.21L23.05,276.28L23.96,276.07L24,276.06L24.14,282.31L24.77,277.61L24.81,277.85L25.19,276.98L25.58,277.65L25.61,277.62L25.86,277.5L26.21,277.82L26.38,277.54L26.42,277.5L27.36,277.3L27.4,277.14L28.59,277.53L28.62,277.54L28.94,277.57L28.97,283.11L29.22,278.38L29.81,279.35L29.85,279.29L30.41,279.6L30.55,279.24L30.58,279.1L31.22,279.33L31.32,279.17L31.36,279.05L32.3,279.32L32.34,279.34L33.63,279.27L33.67,279.28L33.77,279.14L33.81,266.79L34.47,280.49L34.61,280.2L34.65,280.22L34.72,279.36L35.42,279.8L35.45,279.9L36.75,280.12L36.78,280.06L38.19,280.35L38.22,280.27L38.61,280.44L38.64,283.87L38.75,278.72L39.41,281.35L39.45,281.57L39.69,281.88L39.8,281.46L40.22,281.72L40.25,281.74L41.23,281.32L41.27,281.37L41.3,281.34L43.44,281.5L43.47,280.84L43.51,284.06L44.21,281.99L44.24,282.07L44.63,282.37L44.88,281.77L45.05,281.82L45.09,281.8L45.54,281.46L45.96,281.87L46,281.97L47.12,282.31L47.19,282.16L47.22,282.14L48.27,282.33L48.31,288.53L48.38,288.58L49.25,283.48L49.29,283.36L49.88,282.97L50.02,283.21L50.06,283.33L50.2,283.51L50.58,283.01L50.69,282.99L50.72,282.97L52.16,283.32L52.2,283.28L53.11,283.29L53.14,286.65L53.25,282.6L53.95,283.69L53.98,283.82L54.23,283.38L54.68,284.04L54.72,284.08L56.19,284.44L56.22,284.41L57.94,284.13L57.97,286.74L58.11,283.58L58.71,284.24L58.75,284.22L59.73,285.12L59.8,285.06L59.83,284.96L60.81,285.04L60.85,285.04L61.93,285.09L61.97,285.11L62.81,284.65L62.84,282.89L62.98,286.95L63.61,285.48L63.65,285.61L65.3,285.45L65.33,285.55L67.33,285.81L67.36,285.84L67.64,286.45L67.68,286.8L67.75,287.68L67.85,286.23L68.38,286.4L68.41,286.04L68.48,285.88L68.94,286.47L68.97,286.47L69.01,286.69L69.88,286.54L69.92,286.49L70.83,286.49L70.86,286.45L72.44,286.63L72.48,288.1L72.55,287.24L72.76,289.24L73.21,288.22L73.25,288.14L73.46,288.57L73.74,287.65L73.84,287.72L73.88,287.67L74.47,287.56L74.65,287.84L74.68,287.86L75.63,287.75L75.66,287.75L77.13,287.61L77.17,287.68L77.31,283.87L77.73,287.9L77.9,287.76L77.94,287.84L78.15,288.2L78.39,287.29L78.68,287.8L78.71,287.62L79.8,288.06L79.83,287.98L80.71,287.82L80.78,287.88L80.81,287.88L82.11,288.06L82.14,283.87L82.91,289.05L82.95,289.05L83.16,288.75L83.68,288.95L83.72,288.92L83.93,288.6L84.45,288.97L84.49,288.93L85.29,288.83L85.33,288.86L85.36,288.9L86.7,288.73L86.73,288.71L86.94,288.64L86.98,294.45L87.15,288.26L87.75,290.21L87.78,290.15L89.53,289.2L89.57,289.24L91.21,288.87L91.25,288.9L91.77,289.06L91.81,293.45L91.84,294.11L92.41,290.31L92.44,290.38L92.62,290.7L92.76,290.16L93.21,290.26L93.25,290.17L93.39,290.46L93.77,289.79L93.98,290L94.02,289.97L95.66,289.6L95.7,289.65L96.61,289.67L96.64,293.4L97.45,288.87L97.48,289.13L98.85,289.93L98.88,289.87L99.17,289.54L99.73,289.92L99.76,289.94L101.44,290.12L101.48,289.44L102.14,291.55L102.25,291.4L102.28,291.23L102.81,290.59L103.12,290.81L103.16,290.8L106.28,290.73L106.31,292.91L106.66,290.63L107.12,291.28L107.15,291.36L108.48,291.73L108.52,291.74L109.95,291.77L109.99,291.7L111.11,291.45L111.14,295.4L111.91,292.88L111.95,292.79L113.28,291.63L113.32,291.67L115.14,291.7L115.17,291.67L115.94,291.79L115.98,289.9L116.01,289.05L116.61,292.9L116.64,292.78L116.78,293.08L117.27,292.27L117.41,292.54L117.45,292.58L119.02,292.77L119.06,292.75L120.18,292.51L120.22,292.5L120.78,292.25L120.81,290.21L120.85,295.37L121.55,292.74L121.58,292.66L121.76,292.47L122,293L122.28,292.79L122.32,292.89L125.61,292.6L125.64,294.36L125.68,291.59L125.85,295.86L126.38,293.72L126.42,293.76L126.59,294.05L126.77,293.52L127.05,293.48L127.08,293.37L128.94,293.48L128.97,293.43L130.23,293.2L130.27,293.22L130.44,293.22L130.48,295.71L130.55,297.44L131.14,294.72L131.18,294.81L131.21,294.36L132.19,293.66L132.23,293.76L133.53,293.58L133.56,293.63L135.28,293.67L135.31,302.23L136.05,293.42L136.12,293.61L136.15,293.7L136.29,293.86L136.57,293.03L136.61,293.06L136.64,293.02L138.46,294.09L138.5,294.08L139.69,294.11L139.73,294.07L140.11,294.11L140.15,292.94L140.18,292.5L140.78,294.06L140.81,293.98L140.85,294.14L141.09,293.94L141.69,294.72L141.72,294.65L141.76,294.71L143.54,294.87L143.58,294.87L144.56,294.7L144.59,294.63L144.94,294.65L144.98,293.72L145.01,297.13L145.71,295.25L145.75,295.2L146.13,294.94L146.38,295.51L146.45,295.47L146.49,295.58L147.26,295.38L147.29,295.32L147.33,295.18L148.62,295.04L148.66,295.07L149.78,294.99L149.81,299.27L150.51,294.11L150.65,294.41L150.69,294.53L150.86,294.6L151.04,294.27L151.42,294.71L151.46,294.78L153.53,295.24L153.56,295.17L154.61,295.16L154.65,297.49L154.72,298.86L155.35,295.9L155.38,295.98L156.05,295.55L156.19,295.87L156.22,295.89L157.24,296L157.27,296.05L157.31,296.07L159.44,295.58L159.48,295.92L159.58,297.28L160.18,295.47L160.22,295.59L160.25,295.52L160.43,295.21L160.74,295.84L160.95,295.74L160.99,295.86L161.76,295.93L161.79,295.97L161.83,296.02L163.05,296.14L163.09,296.12L164.28,296.11L164.31,298.76L165.19,295.94L165.22,296.14L165.26,296.17L166.31,296.01L166.34,296.02L167.99,296.38L168.03,296.32L169.11,296.19L169.15,292.95L169.32,296.56L169.95,296.49L169.99,296.41L170.48,296.99L170.76,296.89L170.79,296.8L171.77,296.47L171.88,296.64L171.91,296.68L173.35,296.64L173.38,296.7L173.42,296.71L173.95,296.77L173.98,298.79L174.02,299.29L174.19,296.01L174.54,296.59L174.58,296.51L174.79,296.82L175.14,296.44L175.28,296.6L175.31,296.73L176.26,297.3L176.29,297.36L178.78,297.14L178.81,302.54L179.02,296.59L179.62,297.08L179.65,297L179.76,296.56L180.29,297.12L180.36,297.13L180.39,297.21L181.13,297.48L181.16,297.53L181.2,297.6L183.02,297.31L183.05,297.32L183.61,297.31L183.65,301.07L184.21,297.54L184.45,297.86L184.49,297.82L185.22,297.07L185.47,297.38L185.5,297.43L186.38,297.66L186.41,297.68L188.2,297.75L188.24,297.71L188.48,298.23L188.52,299.01L188.55,299.78L188.76,296.92L189.22,298.41L189.25,298.11L189.5,298.94L190.06,298.38L190.09,298.26L190.69,297.81L190.93,297.96L190.97,297.93L192.16,298.06L192.19,298.12L192.23,298.16L193.28,297.99L193.31,302.05L193.38,303.34L193.66,300.76L193.7,300.41L194.47,298.32L194.58,298.46L194.61,298.59L197.06,298.34L197.1,298.38L198.15,297.73L198.22,297.85L198.25,298.62L198.32,299.61L198.71,297.57L198.95,298.04L198.99,297.78L199.3,298.46L199.79,298.35L199.83,298.47L201.09,298.33L201.13,298.3L202.95,298.58L202.98,301.83L203.51,298.59L203.75,298.87L203.79,298.83L203.96,298.41L204.42,299.18L204.45,299.13L204.49,299.22L205.33,299.23L205.36,299.18L207.78,298.76L207.82,301.69L207.89,298.73L208.59,300.05L208.62,299.99L209.39,299.17L209.5,299.47L209.53,299.47L211.35,299.26L211.39,299.27L212.61,299.26L212.65,297.5L213.24,300.17L213.42,299.94L213.45,299.75L213.66,299.82L213.98,299.08L214.26,299.52L214.3,299.56L216.26,299.35L216.29,299.36L217.45,299.47L217.48,296.81L217.69,301.16L218.25,300.01L218.29,300.11L219.51,300.59L219.55,300.55L220.6,300.26L220.63,300.26L222.28,299.83L222.32,301.86L222.35,303.15L222.56,300.02L223.02,300.09L223.05,300.02L223.89,299.96L223.96,299.84L224,299.81L225.08,299.84L225.12,299.89L227.11,300.06L227.15,304.21L227.29,299.59L227.92,300.54L227.96,300.45L228.31,300.61L228.73,300.37L228.76,300.33L230.2,300.61L230.23,300.52L231.95,300.26L231.98,302.44L232.05,304.7L232.3,299.9L232.65,300.31L232.68,300.11L233.63,300.69L233.66,300.67L236.29,300.41L236.33,300.46L236.78,300.46L236.82,306.7L237.24,301.76L237.8,302.09L237.83,301.99L239.16,300.99L239.2,300.96L240.28,300.7L240.32,300.74L240.35,300.76L241.62,300.73L241.65,302.67L241.69,301.71L241.83,302.96L242.39,302.29L242.42,302.54L243.86,301.58L243.89,301.61L244.91,300.79L244.94,300.83L244.98,300.78L246.45,301.03L246.48,305.06L247.01,301.63L247.32,302.37L247.36,302.35L248.59,301.45L248.62,301.5L251.28,301.22L251.32,302.61L251.49,302.83L252.09,301.24L252.12,301.24L252.23,301.75L252.89,301.44L252.93,301.41L255.91,301.42L255.94,301.45L256.15,301.81L256.19,299.42L256.29,298.84L256.43,300.71L256.82,300.1L256.85,300.1L258.11,301.38L258.25,301.2L258.29,301.08L259.69,301.11L259.72,301.13L260.95,301.44L260.98,302.45L261.02,301.04L261.55,303.81L261.69,303.31L261.72,303.47L263.54,302.23L263.58,302.3L265.08,301.92L265.12,301.9L265.78,301.82L265.82,302.77L265.85,300.88L266.55,302.08L266.59,301.98L267.95,302.68L268.02,302.54L268.06,302.54L268.94,302.49L269.04,302.3L269.08,302.24L270.62,302.03L270.65,299.26L270.72,302.05L271.42,301.3L271.46,301.3L272.3,302.13L272.33,302.06L274.15,301.9L274.19,301.93L275.45,302.1L275.49,301.05L275.52,299.36L275.84,303.53L276.22,302.17L276.26,302.06L276.4,302.38L277.03,302.09L277.06,302.11L278.25,302.32L278.29,302.33L280.28,302.31L280.32,301.02L280.35,300.77L280.46,303.04L280.84,302.66L280.88,302.78L281.19,303.19L281.68,303.1L281.72,303.14L282.6,303.21L282.63,303.18L284,302.82L284.03,302.85L285.12,302.64L285.15,307.47L285.4,300.99L285.92,302.86L285.96,302.93L286.24,303.64L286.76,303.12L286.8,302.99L287.71,302.9L287.78,302.98L287.81,303.04L288.9,302.76L288.94,302.74L290.06,302.67L290.09,302.49L290.2,302.26L290.72,303.07L290.86,302.8L290.9,302.87L293.98,303.06L294.01,303.12L294.78,302.88L294.82,308.58L295.45,302.46L295.59,302.95L295.63,302.91L295.73,302.75L296.19,303.32L296.33,303.17L296.36,303.25L299.62,303.3L299.65,307.09L299.83,302.25L300.46,303.6L300.49,303.62L301.19,303.85L301.33,303.63L301.37,303.6L304.45,303.47L304.49,299.32L304.94,304.39L305.29,304.16L305.33,304.21L306.17,303.66L306.2,303.72L306.24,303.8L307.6,303.56L307.64,303.59L309.29,303.76L309.32,301.16L309.67,304.63L310.16,304.18L310.2,304.34L310.65,303.84L310.97,304.11L311,304.06L311.88,304L311.95,303.86L311.98,303.77L313.73,303.76L313.77,303.75L314.12,303.81L314.15,305L314.29,302.17L314.92,304.25L314.96,304.14L315.91,303.84L315.94,303.89L318.95,303.82L318.99,306.01L319.02,306.67L319.23,304.08L319.65,304.54L319.69,304.73L320.6,304.16L320.74,304.3L320.77,304.28L321.09,303.75L321.58,304.08L321.61,304.11L323.79,304.12L323.82,299.84L324.49,303.37L324.59,303.36L324.63,303.53L325.43,304.23L325.5,304.13L325.54,304.2L326.9,304.19L326.94,304.22L328.34,304.2L328.37,304.19L328.65,304.19L328.69,305.17L328.93,302.74L329.5,304.24L329.53,304.21L330.2,304.59L330.34,304.45L330.37,304.42L331.77,304.29L331.81,304.33L333.52,304.26L333.56,305.38L333.7,305.59L333.87,304.59L334.05,304.7L334.08,304.54L334.64,304.07L334.92,304.28L334.96,304.4L335.97,304.46L336.01,304.47L338.29,304.51L338.32,306.05L338.57,305.63L338.6,305.25L338.71,304.35L339.27,305.32L339.34,305.1L339.37,305.14L340.21,304.56L340.25,304.6L340.28,304.67L341.82,304.87L341.86,304.86L343.16,304.26L343.19,306.42L343.23,304.37L343.96,304.57L344,304.68L344.17,305.12L344.77,304.88L344.8,304.89L345.47,304.82L345.61,305.05L345.64,305.09L346.87,304.82L346.9,304.8L347.95,304.87L347.99,301.32L348.09,307.33L348.76,306.26L348.79,306.35L349.85,305.35L349.92,305.4L349.95,305.44L350.93,305.25L350.97,305.2L352.37,305.02L352.4,305.07L352.44,305.11L352.79,305.04L352.82,306.92L353.49,304.45L353.63,304.53L353.66,304.61L355.45,305.21L355.48,305.12L357.62,305.15L357.66,308.32L358.08,304.43L358.46,304.64L358.5,304.87L358.64,304.56L358.99,305.16L359.2,305.07L359.23,305.07L360,305.11L360.07,305.03L360.11,304.98L362.45,305.25L362.49,311.54L362.84,305.68L363.37,305.7L363.4,305.87L366.87,305.45L366.9,305.46L367.29,305.46L367.32,304.01L367.78,305.59L368.09,305.27L368.13,305.39L369.32,305.21L369.35,305.17L371.67,305.66L371.7,305.65L372.12,305.68L372.16,308.86L373,305.34L373.03,305.26L373.98,305.17L374.01,305.23L374.05,305.22L375.13,305.61L375.17,305.55L376.39,305.71L376.43,305.74L376.96,305.67L376.99,311.91L377.73,306.26L377.83,306.45L377.87,306.36L378.04,306.6L378.57,306.15L378.6,306.1L381.79,305.91L381.82,303.1L382.03,307.35L382.59,306.82L382.63,306.89L383.61,306.85L383.65,306.85L386.34,306L386.38,306.03L386.62,306.06L386.66,308.82L387.08,306.4L387.5,306.87L387.53,306.85L389.32,307.32L389.35,307.23L389.39,307.17L391.46,307.37L391.49,304.1L391.67,308.97L392.26,307.32L392.3,307.28L392.68,307.76L393.03,307.2L393.07,307.21L394.19,307.72L394.22,307.72L396.29,307.71L396.32,309.05L396.36,305.34L397.06,307.22L397.1,307.38L397.45,307.9L397.83,307.53L397.87,307.45L401.12,308.14L401.16,307.23L401.23,308.89L401.44,307.04L401.89,307.95L401.93,307.83L402,307.68L402.21,308.29L402.52,308.2L402.56,308.31L403.43,308.39L403.5,308.32L403.54,308.2L405.82,308.45L405.85,308.42L406.03,310.8L406.34,308.28L406.62,308.67L406.66,308.76L407.5,307.99L407.6,308.04L407.64,308.05L410.58,308.26L410.62,308.27L410.83,308.04L410.86,309.41L410.9,308.05L411.04,309.88L411.6,308.96L411.63,308.94L412.47,308.69L412.51,308.77L413.45,308.58L413.52,308.66L413.56,308.66L415.62,308.64L415.66,306.5L415.87,309.37L416.46,308.15L416.5,308.08L418.18,308.63L418.22,308.57L419.44,308.52L419.48,308.5L420.46,308.53L420.49,311.07L420.56,307.33L421.26,307.95L421.3,308.02L425.29,308.8L425.33,310.88L425.36,311.25L425.5,308.58L425.92,309.02L425.96,308.74L426.38,308.21L426.76,308.55L426.8,308.52L430.12,308.82L430.16,307.12L430.72,309.39L430.93,309.07L430.97,309.07L431.67,309.05L431.74,308.94L431.77,308.82L432.82,308.49L432.86,308.53L432.89,308.53L434.43,308.65L434.47,308.65L434.96,308.89L434.99,310.89L435.1,311.72L435.45,309.11L435.48,309.13L435.52,309L436.18,308.48L436.32,308.61L436.36,308.68L437.94,308.77L437.97,308.79L439.72,308.92L439.76,308.92L439.83,309.49L440.18,307.89L440.49,308.82L440.53,308.57L442.21,308.84L442.24,308.81L444.66,309.5L444.7,307.29L445.54,309.51L445.57,309.44L447.11,309.23L447.15,309.13L448.2,309.11L448.23,309.09L449.46,309.14L449.49,308.22L449.53,306.98L449.95,309.46L450.19,309.27L450.23,309.13L451.6,309.07L451.63,309.09L452.68,309.22L452.72,309.2L454.29,309.12L454.33,311.35L455.2,309.41L455.41,309.54L455.45,309.55L457.06,309.37L457.09,309.35L458.53,309.24L458.57,309.28L459.13,309.31L459.16,304.75L459.79,308.02L459.93,307.76L459.97,308L462.03,309.26L462.07,309.27L463.75,309.26L463.78,309.27L463.96,309.25L463.99,310.82L464.13,311.76L464.48,309.85L464.66,309.96L464.69,309.99L465.64,309.58L465.68,309.61L467.25,309.4L467.29,309.42L468.79,309.38L468.83,301.88L469.11,309.88L469.6,309.54L469.63,309.55L470.54,309.58L470.58,309.45L471.95,309.47L471.98,309.44L473.63,309.45L473.66,310.36L473.73,310.91L473.98,309.69L474.29,309.85L474.33,309.67L474.4,309.85L474.92,309.04L474.96,308.88L478.46,309.49L478.5,307.95L478.74,310.72L479.27,309.78L479.3,309.79L481.12,309.52L481.16,309.55L482.66,309.39L482.7,309.37L483.29,309.43L483.33,308.54L483.36,308.35L483.68,309.6L483.96,309.17L483.99,309.5L484.73,310.41L484.94,310.17L484.97,310.11L487.74,309.75L487.78,309.75L488.2,308.84L488.23,310.17L488.3,310.7L488.51,309.39L489,310.3L489.04,310.42L490.23,310L490.26,310.04L492.96,309.65L493,310.8L493.03,311.5L493.14,308.82L493.66,309.12L493.7,309.29L496.78,309.88L496.81,309.84L497.79,309.78L497.83,308.62L497.97,308.33L498.56,310.08L498.6,309.95L498.63,309.79L499.09,309.49L499.37,309.89L499.41,309.93L500.53,310.01L500.56,309.95L502.63,309.65L502.66,312.27L502.73,308.38L503.43,309.48L503.47,309.46L504.66,309.75L504.69,309.75L507.5,309.52L507.53,307.64L507.99,310.26L508.44,310.18L508.48,310.09L509.11,309.73L509.35,309.92L509.39,309.85L512.3,309.82L512.33,308.99L512.37,308.34L512.75,310.5L513,310.16L513.03,310.03L513.45,310.26L513.8,309.92L513.84,309.89L514.92,309.68L514.96,309.68L516.71,309.74L516.74,309.74L517.16,310.18L517.2,310.91L517.65,310.98L517.79,309.57L517.97,309.94L518,309.91L518.42,309.41L518.81,309.66L518.84,309.71L520.6,309.89L520.63,309.87L522.03,310.07L522.07,310.78L522.14,311.13L522.24,309.75L522.91,310.01L522.94,309.99L523.01,309.67L523.47,310.13L523.64,310.14L523.68,310.15L525.46,309.88L525.5,309.94L526.8,309.8L526.83,308.57L527.04,306.97L527.64,308.9L527.67,308.92L528.34,309.28L528.48,309.09L528.51,309.05L529.07,309.11L529.21,309.3L529.25,309.36L531.63,309.79L531.66,313.5L531.73,310.42L532.43,310.68L532.47,310.77L533.35,309.9L533.49,310.07L533.52,310.06L536.53,309.92L536.57,309.37L536.81,310.86L537.3,310.04L537.34,309.9L537.48,309.6L538.07,310.1L538.11,310.18L539.44,310.11L539.48,310.14L541.3,309.92L541.33,308.02L541.4,311.14L542.1,309.81L542.14,309.97L543.33,309.91L543.36,309.91L544.9,310.01L544.94,309.99L546.13,309.85L546.17,311.99L546.59,309.6L546.97,309.66L547.01,309.65L547.81,310.23L547.85,310.19L549.42,309.79L549.46,309.8L550.96,309.82L551,306.17L551.52,310.49L551.77,309.99L551.8,310.08L552.33,309.93L552.57,310.16L552.61,310.17L554.82,309.88L554.85,309.88L555.8,309.72L555.87,310.19L555.9,311.37L555.97,311.96L556.46,310.16L556.5,310.36L556.53,310.26L557.48,309.54L557.55,309.62L557.58,309.56L559.61,309.84L559.65,309.78L560.7,309.79L560.74,310.31L561.02,308.06L561.47,309.42L561.51,309.44L562.21,309.39L562.38,309.61L562.42,309.63L563.4,309.79L563.43,309.76L563.47,309.72L565.46,309.77L565.5,309.31L565.53,308.51L565.74,310.63L566.23,309.57L566.27,309.64L567.15,309.94L567.18,309.92L567.22,309.87L569.11,309.74L569.14,309.73L570.3,309.79L570.33,307.94L570.44,311.69L571.1,310.81L571.14,310.73L571.42,310.9L571.73,310.44L571.77,310.23L575.13,309.88L575.17,307.69L575.55,311.96L575.97,311.19L576.01,311.35L576.99,310.76L577.02,310.74L578.7,310L578.74,309.98L579.96,310.03"/><g class="points"/></g><g class="trace scatter trace89d2aa" style="stroke-miterlimit: 2; opacity: 1;"><path class="js-line" style="vector-effect: non-scaling-stroke; fill: none; stroke: rgb(255, 127, 14); stroke-opacity: 1; stroke-width: 2px; opacity: 1;" d="M0,16.5L4.81,253.19L9.64,258.59L14.47,262.56L19.31,265.28L28.97,269.29L33.81,270.48L43.47,272.96L48.31,273.29L53.14,274.73L57.97,275.16L62.81,275.72L67.64,277.05L135.31,282.64L140.15,282.62L144.98,282.58L149.81,283.6L159.48,283.86L164.31,284.37L178.81,284.28L183.65,284.77L198.15,285.08L202.98,285.06L222.32,285.54L227.15,285.73L241.65,285.86L246.48,285.75L289.99,286.36L294.82,286.48L314.15,286.25L318.99,286.78L333.49,286.49L338.32,286.75L381.82,286.72L386.66,286.79L396.32,287.88L401.16,288.02L425.33,288.08L430.16,288.07L512.33,288.29L517.16,288.15L551,288.23L555.83,288.27L580,288.23"/><g class="points"/></g></g></g><g class="overplot"/><path class="xlines-above crisp" style="fill: none; stroke-width: 1px; stroke: rgb(0, 0, 0); stroke-opacity: 0;" transform="translate(60,60)" d="M-1,330.5H580"/><path class="ylines-above crisp" style="fill: none; stroke-width: 1px; stroke: rgb(0, 0, 0); stroke-opacity: 0;" transform="translate(60,60)" d="M-0.5,0V330"/><g class="overlines-above"/><g class="xaxislayer-above" transform="translate(60,60)"><g class="xtick"><text text-anchor="middle" x="0" y="343" style="font-family: TOBESTRIPPEDOpen SansTOBESTRIPPED, verdana, arial, sans-serif; font-size: 12px; fill: rgb(68, 68, 68); fill-opacity: 1; white-space: pre;" transform="translate(0,0)">0</text></g><g class="xtick"><text text-anchor="middle" x="0" y="343" style="font-family: TOBESTRIPPEDOpen SansTOBESTRIPPED, verdana, arial, sans-serif; font-size: 12px; fill: rgb(68, 68, 68); fill-opacity: 1; white-space: pre;" transform="translate(140.1,0)">20k</text></g><g class="xtick"><text text-anchor="middle" x="0" y="343" style="font-family: TOBESTRIPPEDOpen SansTOBESTRIPPED, verdana, arial, sans-serif; font-size: 12px; fill: rgb(68, 68, 68); fill-opacity: 1; white-space: pre;" transform="translate(280.21,0)">40k</text></g><g class="xtick"><text text-anchor="middle" x="0" y="343" style="font-family: TOBESTRIPPEDOpen SansTOBESTRIPPED, verdana, arial, sans-serif; font-size: 12px; fill: rgb(68, 68, 68); fill-opacity: 1; white-space: pre;" transform="translate(420.31,0)">60k</text></g><g class="xtick"><text text-anchor="middle" x="0" y="343" style="font-family: TOBESTRIPPEDOpen SansTOBESTRIPPED, verdana, arial, sans-serif; font-size: 12px; fill: rgb(68, 68, 68); fill-opacity: 1; white-space: pre;" transform="translate(560.41,0)">80k</text></g></g><g class="yaxislayer-above" transform="translate(60,60)"><g class="ytick"><text text-anchor="end" x="-1" y="4.199999999999999" style="font-family: TOBESTRIPPEDOpen SansTOBESTRIPPED, verdana, arial, sans-serif; font-size: 12px; fill: rgb(68, 68, 68); fill-opacity: 1; white-space: pre;" transform="translate(0,272.07)">5</text></g><g class="ytick"><text text-anchor="end" x="-1" y="4.199999999999999" style="font-family: TOBESTRIPPEDOpen SansTOBESTRIPPED, verdana, arial, sans-serif; font-size: 12px; fill: rgb(68, 68, 68); fill-opacity: 1; white-space: pre;" transform="translate(0,210.85)">10</text></g><g class="ytick"><text text-anchor="end" x="-1" y="4.199999999999999" style="font-family: TOBESTRIPPEDOpen SansTOBESTRIPPED, verdana, arial, sans-serif; font-size: 12px; fill: rgb(68, 68, 68); fill-opacity: 1; white-space: pre;" transform="translate(0,149.62)">15</text></g><g class="ytick"><text text-anchor="end" x="-1" y="4.199999999999999" style="font-family: TOBESTRIPPEDOpen SansTOBESTRIPPED, verdana, arial, sans-serif; font-size: 12px; fill: rgb(68, 68, 68); fill-opacity: 1; white-space: pre;" transform="translate(0,88.4)">20</text></g><g class="ytick"><text text-anchor="end" x="-1" y="4.199999999999999" style="font-family: TOBESTRIPPEDOpen SansTOBESTRIPPED, verdana, arial, sans-serif; font-size: 12px; fill: rgb(68, 68, 68); fill-opacity: 1; white-space: pre;" transform="translate(0,27.17)">25</text></g></g><g class="overaxes-above"/></g></g><g class="ternarylayer"/><g class="geolayer"/><g class="layer-above"><g class="imagelayer"/><g class="shapelayer"/></g><g class="pielayer"/><g class="glimages"/><defs id="topdefs-c6d4e2"><g class="clips"/></defs><g class="infolayer"><g class="g-gtitle"/><g class="g-xtitle"/><g class="g-ytitle"/></g></svg>